# xmcd
#
# Track frame offsets: 
#        150
#        11955
#        23198
#        36777
#        49614
#        60921
#        71989
#        81349
#        93286
#        107193
#        117505
#        129770
#        141293
#        151989
#        163706
#        175500
#        187396
#        197916
#        210108
#        222477
#        235619
#        245789
#        256172
#        268500
#
# Disc length: 3759 seconds
#
# Revision: 0
# Processed by: cddbd v1.5.2PL0 Copyright (c) Steve Scherf et al.
# Submitted via: ExactAudioCopy v0.99pb4
#
DISCID=570ead18
DTITLE=Otis Williams and His Charms - It's A Treat - The King De Lux R
DTITLE=ecordings 1959-63
DYEAR=1963
DGENRE=Soul
TTITLE0=Wait A Minute Baby
TTITLE1=Image Of A Girl
TTITLE2=Watch Dog
TTITLE3=My Prayer Tonight
TTITLE4=Just Foget About Me
TTITLE5=So Can I
TTITLE6=You Know How Much I Care
TTITLE7=Wait
TTITLE8=When We Get Together
TTITLE9=Little Turtle Dove
TTITLE10=The Secret
TTITLE11=Tears Of Happiness
TTITLE12=Unchain My Heart
TTITLE13=Only Young Once
TTITLE14=I Knew It All The Time
TTITLE15=Two Hearts
TTITLE16=Chief Um (Take It Easy)
TTITLE17=Funny What True Love Can Do
TTITLE18=Panic
TTITLE19=And Take My Love
TTITLE20=It's A Treat
TTITLE21=Silver Star
TTITLE22=It Just Ain't Right
TTITLE23=It'll Never Happen Again
EXTD=
EXTT0=
EXTT1=
EXTT2=
EXTT3=
EXTT4=
EXTT5=
EXTT6=
EXTT7=
EXTT8=
EXTT9=
EXTT10=
EXTT11=
EXTT12=
EXTT13=
EXTT14=
EXTT15=
EXTT16=
EXTT17=
EXTT18=
EXTT19=
EXTT20=
EXTT21=
EXTT22=
EXTT23=
PLAYORDER=
